<svg id="Layer_1" data-name="Layer 1" xmlns="http://www.w3.org/2000/svg" xmlns:xlink="http://www.w3.org/1999/xlink" viewBox="0 0 200 444.0022"><defs><linearGradient id="linear-gradient" x1="99.5" y1="443.5022" x2="99.5" y2="-0.5" gradientUnits="userSpaceOnUse"><stop offset="0" stop-color="#2b1c46"/><stop offset="1" stop-color="#06182a"/></linearGradient><radialGradient id="radial-gradient" cx="69.75" cy="379.7511" r="67.0793" gradientUnits="userSpaceOnUse"><stop offset="0" stop-color="#ee2732" stop-opacity="0.2"/><stop offset="1" stop-color="#2b1c46" stop-opacity="0"/></radialGradient></defs><title>bg</title><path d="M199.5-.5v422a238.72431,238.72431,0,0,1-64.48,19.32,235.76126,235.76126,0,0,1-34.52,2.68,238.83859,238.83859,0,0,1-101-22V-.5Z" transform="translate(0.5 0.5)" opacity="0.97" fill="url(#linear-gradient)"/><path d="M140,410.5a94.16554,94.16554,0,0,1-4.98,30.32,235.76126,235.76126,0,0,1-34.52,2.68,238.83859,238.83859,0,0,1-101-22V327.94A94.51643,94.51643,0,0,1,140,410.5Z" transform="translate(0.5 0.5)" fill="url(#radial-gradient)"/></svg>